{"title":"X-Men First Class 2011 TS XViD DTRG - Rjaa","uid":6461016,"size":1495418932,"categoryP":"video","categoryS":"movies","magnet":"?xt=urn:btih:b0125b56c78a4a145c6a8e3e6f05944fe1ae6333&amp;dn=X-Men+First+Class+2011+TS+XViD+DTRG+-+Rjaa&amp;tr=udp%3A%2F%2Ftracker.openbittorrent.com%3A80&amp;tr=udp%3A%2F%2Fopen.demonii.com%3A1337&amp;tr=udp%3A%2F%2Ftracker.coppersurfer.tk%3A6969&amp;tr=udp%3A%2F%2Fexodus.desync.com%3A6969","seeders":0,"leechers":1,"uploader":"rjaa","files":1,"time":1307772464,"description":"\nFormat : AVI\n\nFormat/Info : Audio Video Interleave\n\nFile size : 1.39 GiB\n\nDuration : 2h 3mn\n\nOverall bit rate : 1 614 Kbps\n\nWriting library : VirtualDub build 32839/release\n\nVideo\n\nID : 0\nFormat : MPEG-4 Visual\nFormat profile : Advanced Simple@L5\nFormat settings, BVOP : 2\nFormat settings, QPel : No\nFormat settings, GMC : No warppoints\nFormat settings, Matrix : Default (H.263)\nMuxing mode : Packed bitstream\nCodec ID : XVID\nCodec ID/Hint : XviD\nDuration : 2h 3mn\nBit rate : 1 477 Kbps\nWidth : 720 pixels\nHeight : 288 pixels\nDisplay aspect ratio : 2.500\nFrame rate : 23.976 fps\nColor space : YUV\nChroma subsampling : 4:2:0\nBit depth : 8 bits\nScan type : Progressive\nCompression mode : Lossy\nBits/(Pixel*Frame) : 0.297\nStream size : 1.27 GiB (91%)\nWriting library : XviD 63\n\nAudio\n\nID : 1\nFormat : MPEG Audio\nFormat version : Version 1\nFormat profile : Layer 3\nCodec ID : 55\nCodec ID/Hint : MP3\nDuration : 2h 3mn\nBit rate mode : Constant\nBit rate : 128 Kbps\nChannel(s) : 2 channels\nSampling rate : 44.1 KHz\nCompression mode : Lossy\nStream size : 113 MiB (8%)\nAlignment : Split accross interleaves\nInterleave, duration : 42 ms (1.00 video frame)\nInterleave, preload duration : 500 ms\n &lt;a href=&quot;\nhttp://www.imdb.com/title/tt1270798/&quot; rel=&quot;nofollow&quot; target=&quot;_NEW&quot;&gt;\nhttp://www.imdb.com/title/tt1270798/&lt;/a&gt;\n\n\n\nStoryline\n\nBefore Charles Xavier and Erik Lensherr took the names Professor X and Magneto, they were two young men discovering their powers for the first time. Before they were archenemies, they were closest of friends, working together, with other Mutants (some familiar, some new), to stop the greatest threat the world has ever known. In the process, a rift between them opened, which began the eternal war between Magneto's Brotherhood and Professor X's X-MEN.\n\nscreenshots:\n &lt;a href=&quot;\nhttp://www.grinshare.com/img/QPM96L.png&quot; rel=&quot;nofollow&quot; target=&quot;_NEW&quot;&gt;\nhttp://www.grinshare.com/img/QPM96L.png&lt;/a&gt;\n &lt;a href=&quot;\nhttp://www.grinshare.com/img/K6BY95.png&quot; rel=&quot;nofollow&quot; target=&quot;_NEW&quot;&gt;\nhttp://www.grinshare.com/img/K6BY95.png&lt;/a&gt;\n &lt;a href=&quot;\nhttp://www.grinshare.com/img/HRQXQW.png&quot; rel=&quot;nofollow&quot; target=&quot;_NEW&quot;&gt;\nhttp://www.grinshare.com/img/HRQXQW.png&lt;/a&gt;","torrent":{"xt":"urn:btih:b0125b56c78a4a145c6a8e3e6f05944fe1ae6333","amp;dn":"X-Men+First+Class+2011+TS+XViD+DTRG+-+Rjaa","amp;tr":["udp%3A%2F%2Ftracker.openbittorrent.com%3A80","udp%3A%2F%2Fopen.demonii.com%3A1337","udp%3A%2F%2Ftracker.coppersurfer.tk%3A6969","udp%3A%2F%2Fexodus.desync.com%3A6969"],"infoHash":"b0125b56c78a4a145c6a8e3e6f05944fe1ae6333","infoHashBuffer":{"type":"Buffer","data":[176,18,91,86,199,138,74,20,92,106,142,62,111,5,148,79,225,174,99,51]},"announce":[],"urlList":[]}}